<svg xmlns="http://www.w3.org/2000/svg" width="33.38" height="33.381" viewBox="0 0 33.38 33.381">
    <defs>
        <style>
            .prefix__cls-1{fill:#fff}
        </style>
    </defs>
    <g id="prefix__Group_3854" data-name="Group 3854" transform="translate(-1129 -483.398)">
        <path id="prefix__Path_2223" d="M1374.466 492.59h-20.028a6.677 6.677 0 0 0-6.675 6.677V519.3a6.676 6.676 0 0 0 6.675 6.675h20.028a6.676 6.676 0 0 0 6.677-6.675v-20.033a6.676 6.676 0 0 0-6.677-6.677zm4.279 17.831a4.523 4.523 0 0 1-4.514 4.531h-6.736l-2.3 3.742a.536.536 0 0 1-.077.112.77.77 0 0 1-1.333 0 .832.832 0 0 1-.075-.106l-2.3-3.743h-6.736a4.523 4.523 0 0 1-4.515-4.531v-10.753a4.523 4.523 0 0 1 4.515-4.531h19.555a4.523 4.523 0 0 1 4.514 4.531z" class="prefix__cls-1" data-name="Path 2223" transform="translate(-218.763 -9.192)"/>
        <g id="prefix__Group_3852" data-name="Group 3852" transform="translate(1134.509 491.74)">
            <path id="prefix__Path_2224" d="M1403.392 574.013a2.325 2.325 0 0 0-1.488.689v-2.775h-1.75v7.291h1.769v-.571a1.677 1.677 0 0 0 1.469.753 2.579 2.579 0 0 0 2.466-2.721s-.09-2.666-2.466-2.666zm-.385 3.848a1.125 1.125 0 1 1 1.124-1.125 1.125 1.125 0 0 1-1.124 1.125z" class="prefix__cls-1" data-name="Path 2224" transform="translate(-1400.154 -571.927)"/>
        </g>
        <path id="prefix__Path_2225" d="M1459.753 570.375v1.687s.8-.036.8 1.451v4.316h1.686v-4.715s.072-2.739-2.486-2.739z" class="prefix__cls-1" data-name="Path 2225" transform="translate(-318.978 -78.798)"/>
        <g id="prefix__Group_3853" data-name="Group 3853" transform="translate(1144.493 493.849)">
            <path id="prefix__Path_2226" d="M1498.005 591.983s-2.891 0-2.891 2.7a2.613 2.613 0 0 0 2.891 2.664s2.958 0 2.958-2.664a2.658 2.658 0 0 0-2.958-2.7zm0 3.825a1.125 1.125 0 1 1 1.125-1.125 1.125 1.125 0 0 1-1.124 1.125z" class="prefix__cls-1" data-name="Path 2226" transform="translate(-1495.114 -591.983)"/>
        </g>
        <path id="prefix__Path_2227" d="M1563.1 592.645a1.914 1.914 0 0 0-1.469-.666 2.413 2.413 0 0 0-2.476 2.682s-.027 2.6 2.407 2.6a2 2 0 0 0 1.537-.667V597s.123 1.279-1.115 1.279h-.422v1.55h.68a2.541 2.541 0 0 0 2.557-2.734v-4.938h-1.7zm-1.046 3.159a1.125 1.125 0 1 1 1.124-1.125 1.124 1.124 0 0 1-1.121 1.121z" class="prefix__cls-1" data-name="Path 2227" transform="translate(-407.932 -98.13)"/>
    </g>
</svg>
