<svg xmlns="http://www.w3.org/2000/svg" width="33.448" height="33.448" viewBox="0 0 33.448 33.448">
    <g id="prefix__Group_3855" data-name="Group 3855" transform="translate(-1220.062 -483.293)">
        <path id="prefix__facebook" d="M28.549 0H4.9A4.906 4.906 0 0 0 0 4.9v23.649a4.906 4.906 0 0 0 4.9 4.9h9.865V21.624h-3.92v-5.88h3.92v-3.985a5.886 5.886 0 0 1 5.88-5.88h5.945v5.88h-5.946v3.985h5.945l-.98 5.88h-4.965v11.825h7.9a4.906 4.906 0 0 0 4.9-4.9V4.9A4.906 4.906 0 0 0 28.549 0zm0 0" transform="translate(1220.062 483.293)" style="fill:#fff"/>
    </g>
</svg>
