<svg xmlns="http://www.w3.org/2000/svg" id="prefix__noun_hide_2040068" width="21.174" height="14.899" viewBox="0 0 21.174 14.899">
    <defs>
        <style>
            .prefix__cls-1{fill:gray}
        </style>
    </defs>
    <g id="prefix__Group_187" data-name="Group 187">
        <g id="prefix__Group_186" data-name="Group 186">
            <path id="prefix__Path_197" d="M48.8 28.356c-.178-.223-4.677-5.456-10.356-5.456a10.315 10.315 0 00-3.341.579l7.349 5.568a4.149 4.149 0 00-.334-3.519 17.207 17.207 0 014.766 3.407 19.661 19.661 0 01-2.16 1.848l1.492 1.136a20.654 20.654 0 002.584-2.405.937.937 0 000-1.158z" class="prefix__cls-1" data-name="Path 197" transform="translate(-27.823 -21.497)"/>
            <path id="prefix__Path_198" d="M22.2 29.874l-17.26-13.1A.891.891 0 003.867 18.2l2.606 1.982a19.7 19.7 0 00-3.831 3.278.881.881 0 000 1.158c.178.223 4.677 5.456 10.378 5.456a11.345 11.345 0 004.877-1.2l3.207 2.45a.96.96 0 00.535.178.865.865 0 00.713-.356.908.908 0 00-.152-1.272zm-9.176-1.6c-3.831 0-7.194-2.962-8.463-4.231a17.571 17.571 0 013.43-2.695l.869.646a4.605 4.605 0 00-.067.779A4.23 4.23 0 0013.02 27a3.975 3.975 0 001.848-.445L16.25 27.6a8.293 8.293 0 01-3.23.671z" class="prefix__cls-1" data-name="Path 198" transform="translate(-2.425 -16.601)"/>
        </g>
    </g>
</svg>
