<svg xmlns="http://www.w3.org/2000/svg" width="33.436" height="33.442" viewBox="0 0 33.436 33.442">
    <defs>
        <style>
            .prefix__cls-1{fill:#fff}
        </style>
    </defs>
    <g id="prefix__Group_3856" data-name="Group 3856" transform="translate(-1311.969 -483.293)">
        <path id="prefix__Path_2214" d="M33.8 9.832a12.22 12.22 0 0 0-.777-4.057A8.567 8.567 0 0 0 28.129.882 12.251 12.251 0 0 0 24.072.1c-1.79-.085-2.358-.1-6.9-.1s-5.109.02-6.892.1a12.223 12.223 0 0 0-4.056.775 8.16 8.16 0 0 0-2.966 1.934 8.234 8.234 0 0 0-1.927 2.96 12.253 12.253 0 0 0-.777 4.056c-.085 1.79-.1 2.358-.1 6.9s.02 5.109.1 6.892a12.219 12.219 0 0 0 .778 4.057 8.565 8.565 0 0 0 4.893 4.893 12.253 12.253 0 0 0 4.057.777c1.783.079 2.352.1 6.892.1s5.109-.019 6.892-.1a12.217 12.217 0 0 0 4.057-.777 8.554 8.554 0 0 0 4.893-4.893 12.261 12.261 0 0 0 .777-4.057c.078-1.784.1-2.352.1-6.892s-.015-5.109-.093-6.893zm-3.012 13.654a9.166 9.166 0 0 1-.575 3.1 5.547 5.547 0 0 1-3.175 3.175 9.2 9.2 0 0 1-3.1.575c-1.764.079-2.293.1-6.755.1s-5-.019-6.755-.1a9.161 9.161 0 0 1-3.1-.575A5.146 5.146 0 0 1 5.4 28.516 5.2 5.2 0 0 1 4.153 26.6a9.2 9.2 0 0 1-.575-3.1c-.079-1.764-.1-2.293-.1-6.755s.019-5 .1-6.755a9.161 9.161 0 0 1 .575-3.1 5.083 5.083 0 0 1 1.255-1.932 5.191 5.191 0 0 1 1.92-1.247 9.2 9.2 0 0 1 3.1-.575c1.764-.078 2.293-.1 6.755-.1s5 .02 6.755.1a9.166 9.166 0 0 1 3.1.575 5.142 5.142 0 0 1 1.921 1.248 5.2 5.2 0 0 1 1.248 1.921 9.2 9.2 0 0 1 .575 3.1c.078 1.764.1 2.293.1 6.755s-.015 4.987-.094 6.751zm0 0" class="prefix__cls-1" data-name="Path 2214" transform="translate(1311.52 483.293)"/>
        <path id="prefix__Path_2215" d="M133.54 124.5a8.591 8.591 0 1 0 8.591 8.591 8.593 8.593 0 0 0-8.591-8.591zm0 14.163a5.573 5.573 0 1 1 5.573-5.573 5.574 5.574 0 0 1-5.573 5.573zm0 0" class="prefix__cls-1" data-name="Path 2215" transform="translate(1195.154 366.926)"/>
        <path id="prefix__Path_2216" d="M366.461 90.607a2.006 2.006 0 1 1-2.006-2.006 2.006 2.006 0 0 1 2.006 2.006zm0 0" class="prefix__cls-1" data-name="Path 2216" transform="translate(973.169 400.48)"/>
    </g>
</svg>
