<svg xmlns="http://www.w3.org/2000/svg" width="19" height="19" viewBox="0 0 19 19">
    <path d="M17.144 13.823l-4.2-1.723a.594.594 0 01-.375-.548v-.982a.557.557 0 01.119-.349 8.265 8.265 0 001.721-5.03C14.41 2.086 12.437 0 9.5 0S4.59 2.086 4.59 5.192a8.266 8.266 0 001.721 5.03.557.557 0 01.119.348v.981a.594.594 0 01-.375.548l-4.2 1.723A2.97 2.97 0 000 16.575v1.634A.792.792 0 00.792 19h17.416a.792.792 0 00.792-.792v-1.633a2.97 2.97 0 00-1.856-2.752zm.273 3.594H1.583v-.842a1.392 1.392 0 01.874-1.287l4.2-1.723a2.172 2.172 0 001.357-2.013v-.982a2.145 2.145 0 00-.468-1.34 6.729 6.729 0 01-1.372-4.038c0-2.66 1.718-3.608 3.327-3.608s3.327.948 3.327 3.608a6.729 6.729 0 01-1.372 4.038 2.146 2.146 0 00-.468 1.34v.981a2.172 2.172 0 001.357 2.013l4.2 1.723a1.392 1.392 0 01.874 1.287z" data-name="noun_avatar_2102861 (2)"/>
</svg>
