<svg xmlns="http://www.w3.org/2000/svg" width="22" height="22" data-name="noun_cart_2102832 (4)" viewBox="0 0 22 22">
    <path d="M.917 1.833h1.531l2.295 10.355a3.289 3.289 0 00-1.871 3.042 3.133 3.133 0 002.962 3.275h12.154a.917.917 0 100-1.833H5.833A1.332 1.332 0 014.7 15.231a1.332 1.332 0 011.128-1.442h12.16a.917.917 0 00.863-.606l3.1-8.591a.917.917 0 00-.863-1.227H4.665L4.079.719A.916.916 0 003.184 0H.917a.917.917 0 000 1.833zM19.779 5.2l-2.435 6.758H6.568L5.068 5.2h14.711z" data-name="Path 5"/>
    <path d="M6.574 20.167a.917.917 0 000 1.833h1.164a.917.917 0 100-1.833z" data-name="Path 6"/>
    <path d="M15.031 20.167a.917.917 0 000 1.833h1.164a.917.917 0 100-1.833z" data-name="Path 7"/>
</svg>
