<svg xmlns="http://www.w3.org/2000/svg" id="prefix__price" width="36" height="36" viewBox="0 0 36 36">
    <g id="prefix__Group_3759" data-name="Group 3759">
        <path id="prefix__Path_2195" d="M30.728 5.272A18 18 0 0 0 5.272 30.728 18 18 0 0 0 30.728 5.272zM19.13 25.833h-.075v2.334a1.055 1.055 0 0 1-2.109 0v-2.334h-2.335a1.055 1.055 0 1 1 0-2.109h4.519a2.334 2.334 0 0 0 0-4.669h-2.26a4.444 4.444 0 0 1 0-8.887h.075V7.833a1.055 1.055 0 0 1 2.109 0v2.334h2.334a1.055 1.055 0 1 1 0 2.109H16.87a2.334 2.334 0 0 0 0 4.669h2.26a4.444 4.444 0 0 1 0 8.888z" data-name="Path 2195" style="fill:#5e99ff"/>
    </g>
</svg>
