<svg xmlns="http://www.w3.org/2000/svg" width="27.643" height="33.424" viewBox="0 0 27.643 33.424">
    <defs>
        <style>
            .prefix__cls-1{fill:#fff}
        </style>
    </defs>
    <g id="prefix__Group_3857" data-name="Group 3857" transform="translate(-1399.357 -483.398)">
        <path id="prefix__Path_2217" d="M71.4 220.082a3.5 3.5 0 0 0-2.985-2.723q-3.432-.373-10.352-.373t-10.333.373a3.385 3.385 0 0 0-1.921.877 3.542 3.542 0 0 0-1.082 1.846 32.325 32.325 0 0 0-.485 6.528 31.658 31.658 0 0 0 .485 6.528 3.41 3.41 0 0 0 1.073 1.846 3.306 3.306 0 0 0 1.912.858 99.735 99.735 0 0 0 10.352.392 99.716 99.716 0 0 0 10.352-.392 3.264 3.264 0 0 0 1.9-.858 3.54 3.54 0 0 0 1.082-1.846 32.321 32.321 0 0 0 .485-6.528 31.677 31.677 0 0 0-.483-6.528zm-19.267 1.884h-2v10.613h-1.858v-10.613h-1.959v-1.753h5.819v1.753zm5.036 10.613h-1.66v-1.007a2.73 2.73 0 0 1-1.9 1.138 1 1 0 0 1-1.082-.69 4.616 4.616 0 0 1-.149-1.362v-7.293h1.66v6.789a5.149 5.149 0 0 0 .019.653q.056.392.392.392.5 0 1.063-.783v-7.05h1.66v9.214zm6.342-2.761a6.891 6.891 0 0 1-.167 1.866 1.292 1.292 0 0 1-1.324 1.025 2.316 2.316 0 0 1-1.735-1.025v.9h-1.66v-12.371h1.66v4.047a2.248 2.248 0 0 1 1.735-1.007 1.3 1.3 0 0 1 1.324 1.044 6.663 6.663 0 0 1 .167 1.846zm6.3-1.529h-3.332v1.623q0 1.287.858 1.287a.714.714 0 0 0 .746-.672 9.3 9.3 0 0 0 .037-1.138h1.7v.242a8.257 8.257 0 0 1-.037 1.082 2.309 2.309 0 0 1-2.406 2 2.4 2.4 0 0 1-2.014-.951 3.5 3.5 0 0 1-.541-2.164v-3.227a3.6 3.6 0 0 1 .522-2.164 2.55 2.55 0 0 1 3.973 0 3.7 3.7 0 0 1 .5 2.164v1.921z" class="prefix__cls-1" data-name="Path 2217" transform="translate(1355.112 280.588)"/>
        <path id="prefix__Path_2218" d="M290.626 336.043a1.2 1.2 0 0 0-.839.41v5.614a1.2 1.2 0 0 0 .839.41q.727 0 .728-1.25v-3.935q0-1.249-.728-1.249z" class="prefix__cls-1" data-name="Path 2218" transform="translate(1125.611 169.309)"/>
        <path id="prefix__Path_2219" d="M385.42 336.043q-.839 0-.839 1.268v.858h1.679v-.858q-.001-1.268-.84-1.268z" class="prefix__cls-1" data-name="Path 2219" transform="translate(1037.01 169.309)"/>
        <path id="prefix__Path_2220" d="M114.847 7.442V12.5h1.865V7.442L118.969 0h-1.9L115.8 4.905 114.474 0H112.5q.522 1.567 1.212 3.488a31.613 31.613 0 0 1 1.135 3.954z" class="prefix__cls-1" data-name="Path 2220" transform="translate(1291.319 483.398)"/>
        <path id="prefix__Path_2221" d="M214.329 56.658a2.3 2.3 0 0 0 1.977-.951 3.675 3.675 0 0 0 .522-2.2v-3.265a3.64 3.64 0 0 0-.522-2.182 2.511 2.511 0 0 0-3.936 0 3.639 3.639 0 0 0-.522 2.182v3.264a3.728 3.728 0 0 0 .522 2.2 2.306 2.306 0 0 0 1.959.952zm-.8-6.752q0-1.287.8-1.287t.8 1.287v3.917q0 1.306-.8 1.306t-.8-1.306z" class="prefix__cls-1" data-name="Path 2221" transform="translate(1198.458 439.368)"/>
        <path id="prefix__Path_2222" d="M310.448 58.26a2.684 2.684 0 0 0 1.922-1.157v1.026h1.7v-9.307h-1.7v7.106q-.56.8-1.064.8-.336 0-.392-.41a4.873 4.873 0 0 1-.019-.653v-6.843h-1.7v7.349a4.793 4.793 0 0 0 .149 1.4 1.037 1.037 0 0 0 1.104.689z" class="prefix__cls-1" data-name="Path 2222" transform="translate(1107.468 437.766)"/>
    </g>
</svg>
